<mxfile host="app.diagrams.net" modified="2023-06-29T03:53:42.467Z" agent="Mozilla/5.0 (Windows NT 10.0; Win64; x64) AppleWebKit/537.36 (KHTML, like Gecko) Chrome/114.0.0.0 Safari/537.36" etag="bCLRHgD6pkMBqzrUooyP" version="21.1.8" type="github">
  <diagram id="C5RBs43oDa-KdzZeNtuy" name="Page-1">
    <mxGraphModel dx="2261" dy="756" grid="1" gridSize="10" guides="1" tooltips="1" connect="1" arrows="1" fold="1" page="1" pageScale="1" pageWidth="827" pageHeight="1169" math="0" shadow="0">
      <root>
        <mxCell id="WIyWlLk6GJQsqaUBKTNV-0" />
        <mxCell id="WIyWlLk6GJQsqaUBKTNV-1" parent="WIyWlLk6GJQsqaUBKTNV-0" />
        <mxCell id="Cis5JP788cvHrnFn9T93-7" style="edgeStyle=orthogonalEdgeStyle;rounded=0;orthogonalLoop=1;jettySize=auto;html=1;exitX=0.5;exitY=1;exitDx=0;exitDy=0;" edge="1" parent="WIyWlLk6GJQsqaUBKTNV-1" source="Cis5JP788cvHrnFn9T93-1" target="Cis5JP788cvHrnFn9T93-2">
          <mxGeometry relative="1" as="geometry" />
        </mxCell>
        <mxCell id="Cis5JP788cvHrnFn9T93-1" value="执行stop停机脚本" style="rounded=1;whiteSpace=wrap;html=1;" vertex="1" parent="WIyWlLk6GJQsqaUBKTNV-1">
          <mxGeometry x="70" y="50" width="150" height="50" as="geometry" />
        </mxCell>
        <mxCell id="Cis5JP788cvHrnFn9T93-9" style="edgeStyle=orthogonalEdgeStyle;rounded=0;orthogonalLoop=1;jettySize=auto;html=1;exitX=0.5;exitY=1;exitDx=0;exitDy=0;entryX=0.5;entryY=0;entryDx=0;entryDy=0;" edge="1" parent="WIyWlLk6GJQsqaUBKTNV-1" source="Cis5JP788cvHrnFn9T93-2" target="Cis5JP788cvHrnFn9T93-8">
          <mxGeometry relative="1" as="geometry" />
        </mxCell>
        <mxCell id="Cis5JP788cvHrnFn9T93-26" style="edgeStyle=orthogonalEdgeStyle;rounded=0;orthogonalLoop=1;jettySize=auto;html=1;exitX=0;exitY=0.5;exitDx=0;exitDy=0;entryX=0;entryY=0.5;entryDx=0;entryDy=0;" edge="1" parent="WIyWlLk6GJQsqaUBKTNV-1" source="Cis5JP788cvHrnFn9T93-2" target="Cis5JP788cvHrnFn9T93-24">
          <mxGeometry relative="1" as="geometry">
            <Array as="points">
              <mxPoint x="-160" y="175" />
              <mxPoint x="-160" y="530" />
            </Array>
          </mxGeometry>
        </mxCell>
        <mxCell id="Cis5JP788cvHrnFn9T93-27" value="5s/次，轮询探测获取同步请求处理状态" style="edgeLabel;html=1;align=center;verticalAlign=middle;resizable=0;points=[];" vertex="1" connectable="0" parent="Cis5JP788cvHrnFn9T93-26">
          <mxGeometry x="-0.244" y="-2" relative="1" as="geometry">
            <mxPoint x="-26" y="67" as="offset" />
          </mxGeometry>
        </mxCell>
        <mxCell id="Cis5JP788cvHrnFn9T93-2" value="修改环境变量APP运行态" style="rounded=0;whiteSpace=wrap;html=1;" vertex="1" parent="WIyWlLk6GJQsqaUBKTNV-1">
          <mxGeometry x="65" y="150" width="160" height="50" as="geometry" />
        </mxCell>
        <mxCell id="Cis5JP788cvHrnFn9T93-10" style="edgeStyle=orthogonalEdgeStyle;rounded=0;orthogonalLoop=1;jettySize=auto;html=1;exitX=0.5;exitY=1;exitDx=0;exitDy=0;entryX=1;entryY=0;entryDx=0;entryDy=0;" edge="1" parent="WIyWlLk6GJQsqaUBKTNV-1" source="Cis5JP788cvHrnFn9T93-4" target="Cis5JP788cvHrnFn9T93-8">
          <mxGeometry relative="1" as="geometry">
            <Array as="points">
              <mxPoint x="414" y="248" />
              <mxPoint x="230" y="248" />
            </Array>
          </mxGeometry>
        </mxCell>
        <mxCell id="Cis5JP788cvHrnFn9T93-11" value="轮询监听" style="edgeLabel;html=1;align=center;verticalAlign=middle;resizable=0;points=[];" vertex="1" connectable="0" parent="Cis5JP788cvHrnFn9T93-10">
          <mxGeometry x="0.2641" relative="1" as="geometry">
            <mxPoint as="offset" />
          </mxGeometry>
        </mxCell>
        <mxCell id="Cis5JP788cvHrnFn9T93-4" value="F5探测指针" style="rounded=1;whiteSpace=wrap;html=1;" vertex="1" parent="WIyWlLk6GJQsqaUBKTNV-1">
          <mxGeometry x="339" y="50" width="150" height="50" as="geometry" />
        </mxCell>
        <mxCell id="Cis5JP788cvHrnFn9T93-12" style="edgeStyle=orthogonalEdgeStyle;rounded=0;orthogonalLoop=1;jettySize=auto;html=1;exitX=1;exitY=1;exitDx=0;exitDy=0;entryX=0.68;entryY=1.02;entryDx=0;entryDy=0;entryPerimeter=0;dashed=1;" edge="1" parent="WIyWlLk6GJQsqaUBKTNV-1" source="Cis5JP788cvHrnFn9T93-8" target="Cis5JP788cvHrnFn9T93-4">
          <mxGeometry relative="1" as="geometry" />
        </mxCell>
        <mxCell id="Cis5JP788cvHrnFn9T93-13" value="通知F5不再发送外部请求" style="edgeLabel;html=1;align=center;verticalAlign=middle;resizable=0;points=[];" vertex="1" connectable="0" parent="Cis5JP788cvHrnFn9T93-12">
          <mxGeometry x="0.2761" y="-1" relative="1" as="geometry">
            <mxPoint y="7" as="offset" />
          </mxGeometry>
        </mxCell>
        <mxCell id="Cis5JP788cvHrnFn9T93-16" style="edgeStyle=orthogonalEdgeStyle;rounded=0;orthogonalLoop=1;jettySize=auto;html=1;exitX=0.5;exitY=1;exitDx=0;exitDy=0;entryX=0.5;entryY=0;entryDx=0;entryDy=0;" edge="1" parent="WIyWlLk6GJQsqaUBKTNV-1" source="Cis5JP788cvHrnFn9T93-8" target="Cis5JP788cvHrnFn9T93-14">
          <mxGeometry relative="1" as="geometry" />
        </mxCell>
        <mxCell id="Cis5JP788cvHrnFn9T93-18" value="同步任务" style="edgeLabel;html=1;align=center;verticalAlign=middle;resizable=0;points=[];" vertex="1" connectable="0" parent="Cis5JP788cvHrnFn9T93-16">
          <mxGeometry x="-0.1036" y="4" relative="1" as="geometry">
            <mxPoint x="-17" y="-4" as="offset" />
          </mxGeometry>
        </mxCell>
        <mxCell id="Cis5JP788cvHrnFn9T93-29" style="edgeStyle=orthogonalEdgeStyle;rounded=0;orthogonalLoop=1;jettySize=auto;html=1;exitX=0.5;exitY=1;exitDx=0;exitDy=0;" edge="1" parent="WIyWlLk6GJQsqaUBKTNV-1" source="Cis5JP788cvHrnFn9T93-8" target="Cis5JP788cvHrnFn9T93-28">
          <mxGeometry relative="1" as="geometry" />
        </mxCell>
        <mxCell id="Cis5JP788cvHrnFn9T93-33" style="edgeStyle=orthogonalEdgeStyle;rounded=0;orthogonalLoop=1;jettySize=auto;html=1;exitX=0.5;exitY=1;exitDx=0;exitDy=0;entryX=0.5;entryY=0;entryDx=0;entryDy=0;" edge="1" parent="WIyWlLk6GJQsqaUBKTNV-1" source="Cis5JP788cvHrnFn9T93-8" target="Cis5JP788cvHrnFn9T93-15">
          <mxGeometry relative="1" as="geometry" />
        </mxCell>
        <mxCell id="Cis5JP788cvHrnFn9T93-34" value="异步任务" style="edgeLabel;html=1;align=center;verticalAlign=middle;resizable=0;points=[];" vertex="1" connectable="0" parent="Cis5JP788cvHrnFn9T93-33">
          <mxGeometry x="0.1849" y="3" relative="1" as="geometry">
            <mxPoint as="offset" />
          </mxGeometry>
        </mxCell>
        <mxCell id="Cis5JP788cvHrnFn9T93-35" style="edgeStyle=orthogonalEdgeStyle;rounded=0;orthogonalLoop=1;jettySize=auto;html=1;exitX=0.5;exitY=1;exitDx=0;exitDy=0;" edge="1" parent="WIyWlLk6GJQsqaUBKTNV-1" source="Cis5JP788cvHrnFn9T93-8" target="Cis5JP788cvHrnFn9T93-21">
          <mxGeometry relative="1" as="geometry" />
        </mxCell>
        <mxCell id="Cis5JP788cvHrnFn9T93-36" value="定时任务" style="edgeLabel;html=1;align=center;verticalAlign=middle;resizable=0;points=[];" vertex="1" connectable="0" parent="Cis5JP788cvHrnFn9T93-35">
          <mxGeometry x="0.5636" y="1" relative="1" as="geometry">
            <mxPoint as="offset" />
          </mxGeometry>
        </mxCell>
        <mxCell id="Cis5JP788cvHrnFn9T93-8" value="状态不为running" style="rhombus;whiteSpace=wrap;html=1;" vertex="1" parent="WIyWlLk6GJQsqaUBKTNV-1">
          <mxGeometry x="57.5" y="230" width="175" height="70" as="geometry" />
        </mxCell>
        <mxCell id="Cis5JP788cvHrnFn9T93-25" style="edgeStyle=orthogonalEdgeStyle;rounded=0;orthogonalLoop=1;jettySize=auto;html=1;exitX=0.5;exitY=1;exitDx=0;exitDy=0;" edge="1" parent="WIyWlLk6GJQsqaUBKTNV-1" source="Cis5JP788cvHrnFn9T93-14" target="Cis5JP788cvHrnFn9T93-24">
          <mxGeometry relative="1" as="geometry" />
        </mxCell>
        <mxCell id="Cis5JP788cvHrnFn9T93-14" value="程序计数器，判定程序内同步任务是否全部结束" style="rounded=0;whiteSpace=wrap;html=1;" vertex="1" parent="WIyWlLk6GJQsqaUBKTNV-1">
          <mxGeometry x="-120" y="400" width="120" height="60" as="geometry" />
        </mxCell>
        <mxCell id="Cis5JP788cvHrnFn9T93-37" style="edgeStyle=orthogonalEdgeStyle;rounded=0;orthogonalLoop=1;jettySize=auto;html=1;exitX=0.5;exitY=1;exitDx=0;exitDy=0;" edge="1" parent="WIyWlLk6GJQsqaUBKTNV-1" source="Cis5JP788cvHrnFn9T93-15">
          <mxGeometry relative="1" as="geometry">
            <mxPoint x="310" y="600" as="targetPoint" />
          </mxGeometry>
        </mxCell>
        <mxCell id="Cis5JP788cvHrnFn9T93-15" value="监听线程池运行情况" style="rounded=0;whiteSpace=wrap;html=1;" vertex="1" parent="WIyWlLk6GJQsqaUBKTNV-1">
          <mxGeometry x="250" y="400" width="120" height="60" as="geometry" />
        </mxCell>
        <mxCell id="Cis5JP788cvHrnFn9T93-38" style="edgeStyle=orthogonalEdgeStyle;rounded=0;orthogonalLoop=1;jettySize=auto;html=1;exitX=0.5;exitY=1;exitDx=0;exitDy=0;" edge="1" parent="WIyWlLk6GJQsqaUBKTNV-1" source="Cis5JP788cvHrnFn9T93-21">
          <mxGeometry relative="1" as="geometry">
            <mxPoint x="471" y="560" as="targetPoint" />
          </mxGeometry>
        </mxCell>
        <mxCell id="Cis5JP788cvHrnFn9T93-21" value="监听trigger定时器" style="rounded=0;whiteSpace=wrap;html=1;" vertex="1" parent="WIyWlLk6GJQsqaUBKTNV-1">
          <mxGeometry x="410.5" y="400" width="120" height="60" as="geometry" />
        </mxCell>
        <mxCell id="Cis5JP788cvHrnFn9T93-30" style="edgeStyle=orthogonalEdgeStyle;rounded=0;orthogonalLoop=1;jettySize=auto;html=1;exitX=1;exitY=0.5;exitDx=0;exitDy=0;entryX=0;entryY=0.5;entryDx=0;entryDy=0;dashed=1;" edge="1" parent="WIyWlLk6GJQsqaUBKTNV-1" source="Cis5JP788cvHrnFn9T93-24" target="Cis5JP788cvHrnFn9T93-28">
          <mxGeometry relative="1" as="geometry" />
        </mxCell>
        <mxCell id="Cis5JP788cvHrnFn9T93-31" value="告知同步任务结束" style="edgeLabel;html=1;align=center;verticalAlign=middle;resizable=0;points=[];" vertex="1" connectable="0" parent="Cis5JP788cvHrnFn9T93-30">
          <mxGeometry x="0.1244" y="-3" relative="1" as="geometry">
            <mxPoint x="-25" y="24" as="offset" />
          </mxGeometry>
        </mxCell>
        <mxCell id="Cis5JP788cvHrnFn9T93-24" value="启动定时探测线程，利用AOP加计数器判定当前同步任务情况" style="rounded=0;whiteSpace=wrap;html=1;" vertex="1" parent="WIyWlLk6GJQsqaUBKTNV-1">
          <mxGeometry x="-120" y="500" width="120" height="60" as="geometry" />
        </mxCell>
        <mxCell id="Cis5JP788cvHrnFn9T93-40" style="edgeStyle=orthogonalEdgeStyle;rounded=0;orthogonalLoop=1;jettySize=auto;html=1;exitX=0.5;exitY=1;exitDx=0;exitDy=0;" edge="1" parent="WIyWlLk6GJQsqaUBKTNV-1" source="Cis5JP788cvHrnFn9T93-28">
          <mxGeometry relative="1" as="geometry">
            <mxPoint x="310" y="510" as="targetPoint" />
            <Array as="points">
              <mxPoint x="145" y="510" />
            </Array>
          </mxGeometry>
        </mxCell>
        <mxCell id="Cis5JP788cvHrnFn9T93-41" value="&lt;span style=&quot;background-color: rgb(153, 255, 51);&quot;&gt;发送停机信息kill -15&lt;/span&gt;" style="edgeLabel;html=1;align=center;verticalAlign=middle;resizable=0;points=[];fontStyle=1" vertex="1" connectable="0" parent="Cis5JP788cvHrnFn9T93-40">
          <mxGeometry x="-0.2651" y="3" relative="1" as="geometry">
            <mxPoint x="46" y="-7" as="offset" />
          </mxGeometry>
        </mxCell>
        <mxCell id="Cis5JP788cvHrnFn9T93-42" style="edgeStyle=orthogonalEdgeStyle;rounded=0;orthogonalLoop=1;jettySize=auto;html=1;exitX=0.5;exitY=1;exitDx=0;exitDy=0;" edge="1" parent="WIyWlLk6GJQsqaUBKTNV-1" source="Cis5JP788cvHrnFn9T93-28">
          <mxGeometry relative="1" as="geometry">
            <mxPoint x="470" y="510" as="targetPoint" />
            <Array as="points">
              <mxPoint x="145" y="510" />
            </Array>
          </mxGeometry>
        </mxCell>
        <mxCell id="Cis5JP788cvHrnFn9T93-28" value="脚本阻塞等待同步任务执完毕" style="rounded=0;whiteSpace=wrap;html=1;" vertex="1" parent="WIyWlLk6GJQsqaUBKTNV-1">
          <mxGeometry x="85" y="400" width="120" height="60" as="geometry" />
        </mxCell>
        <mxCell id="Cis5JP788cvHrnFn9T93-32" value="&lt;b&gt;block&lt;/b&gt;" style="edgeLabel;html=1;align=center;verticalAlign=middle;resizable=0;points=[];" vertex="1" connectable="0" parent="WIyWlLk6GJQsqaUBKTNV-1">
          <mxGeometry x="145" y="370" as="geometry" />
        </mxCell>
        <mxCell id="Cis5JP788cvHrnFn9T93-45" value="&lt;span style=&quot;background-color: rgb(153, 255, 51);&quot;&gt;发送停机信息kill -15&lt;/span&gt;" style="edgeLabel;html=1;align=center;verticalAlign=middle;resizable=0;points=[];fontStyle=1" vertex="1" connectable="0" parent="WIyWlLk6GJQsqaUBKTNV-1">
          <mxGeometry x="390" y="500" as="geometry" />
        </mxCell>
      </root>
    </mxGraphModel>
  </diagram>
</mxfile>
